<svg width="32" height="34" viewBox="0 0 32 34" fill="none" xmlns="http://www.w3.org/2000/svg">
<path d="M24 12.6667C24 10.5449 23.1571 8.51009 21.6569 7.0098C20.1566 5.50951 18.1217 4.66666 16 4.66666C13.8783 4.66666 11.8434 5.50951 10.3431 7.0098C8.84286 8.51009 8 10.5449 8 12.6667C8 22 4 24.6667 4 24.6667H28C28 24.6667 24 22 24 12.6667Z" stroke="#2A334D" stroke-width="3" stroke-linecap="round" stroke-linejoin="round"/>
<path d="M18.3067 30C18.0722 30.4041 17.7358 30.7395 17.331 30.9727C16.9261 31.2059 16.4672 31.3286 16 31.3286C15.5328 31.3286 15.0738 31.2059 14.669 30.9727C14.2642 30.7395 13.9277 30.4041 13.6933 30" stroke="#2A334D" stroke-width="3" stroke-linecap="round" stroke-linejoin="round"/>
<ellipse cx="21.3333" cy="4.875" rx="5.33333" ry="4.875" fill="#0A3ECC"/>
</svg>
